<svg xmlns="http://www.w3.org/2000/svg">
  <defs>
    <symbol id="char-1" viewBox="0 0 142 200">
      <path
        d="M122.07,103.24l4.92,5.47-7.92,76.59c-2.55,7.3-7.56,11.86-15.02,13.68l-6.01-21.88,6.01-57.44,18.02-16.41ZM108.14,81.35l6.01-57.44,10.38-21.88c7.1,1.82,11.2,6.39,12.29,13.68l-7.92,76.59-6.28,5.47-14.47-16.41Z"
      />
    </symbol>
    <symbol id="char-2" viewBox="0 0 142 200">
      <path
        d="M106.77,198.97H16.66c-7.1-1.82-11.2-6.38-12.29-13.68l22.67-8.21h73.73l6.01,21.88ZM4.92,179.82l7.37-71.12,6.01-5.47,14.75,16.41-5.46,51.97-22.67,8.21ZM108.69,23.91H43.42l-21.03-8.21c2.55-7.29,7.55-11.85,15.02-13.68h81.65l-10.38,21.88ZM107.32,89.56l9.56,10.94-12.02,10.94H33.86l-9.83-10.94,12.29-10.94h71ZM108.14,81.35l6.01-57.44,10.38-21.88c7.1,1.82,11.2,6.39,12.29,13.68l-7.92,76.59-6.28,5.47-14.47-16.41Z"
      />
    </symbol>
    <symbol id="char-3" viewBox="0 0 142 200">
      <path
        d="M98.58,198.97H16.66c-7.1-1.82-11.2-6.38-12.29-13.68l22.67-8.21h65.54l6.01,21.88ZM108.69,23.91H43.42l-21.03-8.21c2.55-7.29,7.55-11.85,15.02-13.68h81.65l-10.38,21.88ZM107.32,89.56l9.56,10.94-12.02,10.94H33.86l-9.83-10.94,12.29-10.94h71ZM122.07,103.24l4.92,5.47-7.92,76.59c-2.55,7.3-7.56,11.86-15.02,13.68l-6.01-21.88,6.01-57.44,18.02-16.41ZM108.14,81.35l6.01-57.44,10.38-21.88c7.1,1.82,11.2,6.39,12.29,13.68l-7.92,76.59-6.28,5.47-14.47-16.41Z"
      />
    </symbol>
    <symbol id="char-4" viewBox="0 0 142 200">
      <path
        d="M43.42,21.18l-6.28,60.18-18.3,16.41-4.64-5.47L22.39,12.97l21.03,8.21ZM107.32,89.56l9.56,10.94-12.02,10.94H33.86l-9.83-10.94,12.29-10.94h71ZM122.07,103.24l4.92,5.47-7.92,76.59c-2.55,7.3-7.56,11.86-15.02,13.68l-6.01-21.88,6.01-57.44,18.02-16.41ZM108.14,81.35l6.01-57.44,10.38-21.88c7.1,1.82,11.2,6.39,12.29,13.68l-7.92,76.59-6.28,5.47-14.47-16.41Z"
      />
    </symbol>
    <symbol id="char-5" viewBox="0 0 142 200">
      <path
        d="M98.58,198.97H16.66c-7.1-1.82-11.2-6.38-12.29-13.68l22.67-8.21h65.54l6.01,21.88ZM42.6,29.38l-5.46,51.97-18.3,16.41-4.64-5.47,7.37-71.12,21.03,8.21ZM116.88,23.91H43.42l-21.03-8.21c2.55-7.29,7.55-11.85,15.02-13.68h89.84l-10.38,21.88ZM107.32,89.56l9.56,10.94-12.02,10.94H33.86l-9.83-10.94,12.29-10.94h71ZM122.07,103.24l4.92,5.47-7.92,76.59c-2.55,7.3-7.56,11.86-15.02,13.68l-6.01-21.88,6.01-57.44,18.02-16.41Z"
      />
    </symbol>
    <symbol id="char-6" viewBox="0 0 142 200">
      <path
        d="M98.58,198.97H16.66c-7.1-1.82-11.2-6.38-12.29-13.68l22.67-8.21h65.54l6.01,21.88ZM4.92,179.82l7.37-71.12,6.01-5.47,14.75,16.41-5.46,51.97-22.67,8.21ZM42.6,29.38l-5.46,51.97-18.3,16.41-4.64-5.47,7.37-71.12,21.03,8.21ZM116.88,23.91H43.42l-21.03-8.21c2.55-7.29,7.55-11.85,15.02-13.68h89.84l-10.38,21.88ZM107.32,89.56l9.56,10.94-12.02,10.94H33.86l-9.83-10.94,12.29-10.94h71ZM122.07,103.24l4.92,5.47-7.92,76.59c-2.55,7.3-7.56,11.86-15.02,13.68l-6.01-21.88,6.01-57.44,18.02-16.41Z"
      />
    </symbol>
    <symbol id="char-7" viewBox="0 0 142 200">
      <path
        d="M42.6,29.38l-5.46,51.97-18.3,16.41-4.64-5.47,7.37-71.12,21.03,8.21ZM108.69,23.91H43.42l-21.03-8.21c2.55-7.29,7.55-11.85,15.02-13.68h81.65l-10.38,21.88ZM122.07,103.24l4.92,5.47-7.92,76.59c-2.55,7.3-7.56,11.86-15.02,13.68l-6.01-21.88,6.01-57.44,18.02-16.41ZM108.14,81.35l6.01-57.44,10.38-21.88c7.1,1.82,11.2,6.39,12.29,13.68l-7.92,76.59-6.28,5.47-14.47-16.41Z"
      />
    </symbol>
    <symbol id="char-8" viewBox="0 0 142 200">
      <path
        d="M98.58,198.97H16.66c-7.1-1.82-11.2-6.38-12.29-13.68l22.67-8.21h65.54l6.01,21.88ZM4.92,179.82l7.37-71.12,6.01-5.47,14.75,16.41-5.46,51.97-22.67,8.21ZM42.6,29.38l-5.46,51.97-18.3,16.41-4.64-5.47,7.37-71.12,21.03,8.21ZM108.69,23.91H43.42l-21.03-8.21c2.55-7.29,7.55-11.85,15.02-13.68h81.65l-10.38,21.88ZM107.32,89.56l9.56,10.94-12.02,10.94H33.86l-9.83-10.94,12.29-10.94h71ZM122.07,103.24l4.92,5.47-7.92,76.59c-2.55,7.3-7.56,11.86-15.02,13.68l-6.01-21.88,6.01-57.44,18.02-16.41ZM108.14,81.35l6.01-57.44,10.38-21.88c7.1,1.82,11.2,6.39,12.29,13.68l-7.92,76.59-6.28,5.47-14.47-16.41Z"
      />
    </symbol>
    <symbol id="char-9" viewBox="0 0 142 200">
      <path
        d="M98.58,198.97H16.66c-7.1-1.82-11.2-6.38-12.29-13.68l22.67-8.21h65.54l6.01,21.88ZM42.6,29.38l-5.46,51.97-18.3,16.41-4.64-5.47,7.37-71.12,21.03,8.21ZM108.69,23.91H43.42l-21.03-8.21c2.55-7.29,7.55-11.85,15.02-13.68h81.65l-10.38,21.88ZM107.32,89.56l9.56,10.94-12.02,10.94H33.86l-9.83-10.94,12.29-10.94h71ZM122.07,103.24l4.92,5.47-7.92,76.59c-2.55,7.3-7.56,11.86-15.02,13.68l-6.01-21.88,6.01-57.44,18.02-16.41ZM108.14,81.35l6.01-57.44,10.38-21.88c7.1,1.82,11.2,6.39,12.29,13.68l-7.92,76.59-6.28,5.47-14.47-16.41Z"
      />
    </symbol>
    <symbol id="char-a" viewBox="0 0 142 200">
      <path
        d="M33.04,119.65l-6.01,57.44-10.38,21.88c-7.1-1.82-11.2-6.38-12.29-13.68l7.92-76.59,6.01-5.47,14.75,16.41ZM42.6,29.38l-5.46,51.97-18.3,16.41-4.64-5.47,7.37-71.12,21.03,8.21ZM108.69,23.91H43.42l-21.03-8.21c2.55-7.29,7.55-11.85,15.02-13.68h81.65l-10.38,21.88ZM107.32,89.56l9.56,10.94-12.02,10.94H33.86l-9.83-10.94,12.29-10.94h71ZM122.07,103.24l4.92,5.47-7.92,76.59c-2.55,7.3-7.56,11.86-15.02,13.68l-6.01-21.88,6.01-57.44,18.02-16.41ZM108.14,81.35l6.01-57.44,10.38-21.88c7.1,1.82,11.2,6.39,12.29,13.68l-7.92,76.59-6.28,5.47-14.47-16.41Z"
      />
    </symbol>
    <symbol id="char-b" viewBox="0 0 142 200">
      <path
        d="M102.13,188.03l-12.02,10.94H3l1.37-13.68,22.67-8.21h65.27l9.83,10.94ZM4.92,179.82l7.37-71.12,6.01-5.47,14.75,16.41-5.46,51.97-22.67,8.21ZM42.6,29.38l-5.46,51.97-18.3,16.41-4.64-5.47,7.37-71.12,21.03,8.21ZM108.69,23.91H43.15l-21.03-8.21,1.37-13.68h87.39l9.83,10.94-12.02,10.94ZM107.32,89.56l9.56,10.94-12.02,10.94H33.86l-9.83-10.94,12.29-10.94h71ZM122.07,103.24l4.92,5.47-6.55,62.91-15.02,13.68-7.37-8.21,6.01-57.44,18.02-16.41ZM108.14,81.35l6.01-57.44,9.01-8.21,12.29,13.68-6.55,62.91-6.28,5.47-14.47-16.41Z"
      />
    </symbol>
    <symbol id="char-c" viewBox="0 0 142 200">
      <path
        d="M106.77,198.97H16.66c-7.1-1.82-11.2-6.38-12.29-13.68l22.67-8.21h73.73l6.01,21.88ZM4.92,179.82l7.37-71.12,6.01-5.47,14.75,16.41-5.46,51.97-22.67,8.21ZM42.6,29.38l-5.46,51.97-18.3,16.41-4.64-5.47,7.37-71.12,21.03,8.21ZM116.88,23.91H43.42l-21.03-8.21c2.55-7.29,7.55-11.85,15.02-13.68h89.84l-10.38,21.88Z"
      />
    </symbol>
    <symbol id="char-d" viewBox="0 0 142 200">
      <path
        d="M102.13,188.03l-12.02,10.94H3l1.37-13.68,22.67-8.21h65.27l9.83,10.94ZM4.92,179.82l7.37-71.12,6.01-5.47,14.75,16.41-5.46,51.97-22.67,8.21ZM42.6,29.38l-5.46,51.97-18.3,16.41-4.64-5.47,7.37-71.12,21.03,8.21ZM108.69,23.91H43.15l-21.03-8.21,1.37-13.68h87.39l9.83,10.94-12.02,10.94ZM122.07,103.24l4.92,5.47-6.55,62.91-15.02,13.68-7.37-8.21,6.01-57.44,18.02-16.41ZM108.14,81.35l6.01-57.44,9.01-8.21,12.29,13.68-6.55,62.91-6.28,5.47-14.47-16.41Z"
      />
    </symbol>
    <symbol id="char-e" viewBox="0 0 142 200">
      <path
        d="M106.77,198.97H16.66c-7.1-1.82-11.2-6.38-12.29-13.68l22.67-8.21h73.73l6.01,21.88ZM4.92,179.82l7.37-71.12,6.01-5.47,14.75,16.41-5.46,51.97-22.67,8.21ZM42.6,29.38l-5.46,51.97-18.3,16.41-4.64-5.47,7.37-71.12,21.03,8.21ZM116.88,23.91H43.42l-21.03-8.21c2.55-7.29,7.55-11.85,15.02-13.68h89.84l-10.38,21.88ZM107.32,89.56l9.56,10.94-12.02,10.94H33.86l-9.83-10.94,12.29-10.94h71Z"
      />
    </symbol>
    <symbol id="char-f" viewBox="0 0 142 200">
      <path
        d="M33.04,119.65l-6.01,57.44-10.38,21.88c-7.1-1.82-11.2-6.38-12.29-13.68l7.92-76.59,6.01-5.47,14.75,16.41ZM42.6,29.38l-5.46,51.97-18.3,16.41-4.64-5.47,7.37-71.12,21.03,8.21ZM116.88,23.91H43.42l-21.03-8.21c2.55-7.29,7.55-11.85,15.02-13.68h89.84l-10.38,21.88ZM107.32,89.56l9.56,10.94-12.02,10.94H33.86l-9.83-10.94,12.29-10.94h71Z"
      />
    </symbol>
    <symbol id="char-g" viewBox="0 0 142 200">
      <path
        d="M98.58,198.97H16.66c-7.1-1.82-11.2-6.38-12.29-13.68l22.67-8.21h65.54l6.01,21.88ZM4.92,179.82l7.37-71.12,6.01-5.47,14.75,16.41-5.46,51.97-22.67,8.21ZM42.6,29.38l-5.46,51.97-18.3,16.41-4.64-5.47,7.37-71.12,21.03,8.21ZM116.88,23.91H43.42l-21.03-8.21c2.55-7.29,7.55-11.85,15.02-13.68h89.84l-10.38,21.88ZM107.32,89.56l9.56,10.94-12.02,10.94h-24.58l-9.83-10.94,12.29-10.94h24.58ZM122.07,103.24l4.92,5.47-7.92,76.59c-2.55,7.3-7.56,11.86-15.02,13.68l-6.01-21.88,6.01-57.44,18.02-16.41Z"
      />
    </symbol>
    <symbol id="char-h" viewBox="0 0 142 200">
      <path
        d="M33.04,119.65l-6.01,57.44-10.38,21.88c-7.1-1.82-11.2-6.38-12.29-13.68l7.92-76.59,6.01-5.47,14.75,16.41ZM18.57,100.5l-4.64-5.47,7.92-76.59c2.55-7.29,7.55-11.85,15.02-13.68l6.01,21.88-6.01,57.44-18.3,16.41ZM107.32,89.56l9.56,10.94-12.02,10.94H33.86l-9.83-10.94,12.29-10.94h71ZM122.07,103.24l4.92,5.47-7.92,76.59c-2.55,7.3-7.56,11.86-15.02,13.68l-6.01-21.88,6.01-57.44,18.02-16.41ZM108.14,81.35l6.01-57.44,10.38-21.88c7.1,1.82,11.2,6.39,12.29,13.68l-7.92,76.59-6.28,5.47-14.47-16.41Z"
      />
    </symbol>
    <symbol id="char-i" viewBox="0 0 142 200">
      <path
        d="M73.19,100.5l4.92,5.47-7.92,76.59c-2.73,7.3-7.83,11.86-15.29,13.68l-5.73-21.88,6.01-57.44,18.02-16.41ZM58.98,81.35l6.01-57.44,10.38-21.88c7.1,1.82,11.2,6.39,12.29,13.68l-8.19,76.59-6.01,5.47-14.47-16.41Z"
      />
    </symbol>
    <symbol id="char-j" viewBox="0 0 142 200">
      <path
        d="M98.58,198.97H16.66c-7.1-1.82-11.2-6.38-12.29-13.68l22.67-8.21h65.54l6.01,21.88ZM4.92,179.82l7.37-71.12,6.01-5.47,14.75,16.41-5.46,51.97-22.67,8.21ZM122.07,103.24l4.92,5.47-7.92,76.59c-2.55,7.3-7.56,11.86-15.02,13.68l-6.01-21.88,6.01-57.44,18.02-16.41ZM108.14,81.35l6.01-57.44,10.38-21.88c7.1,1.82,11.2,6.39,12.29,13.68l-7.92,76.59-6.28,5.47-14.47-16.41Z"
      />
    </symbol>
    <symbol id="char-k" viewBox="0 0 142 200">
      <path
        d="M33.04,119.65l-6.01,57.44-10.38,21.88c-7.1-1.82-11.2-6.38-12.29-13.68l7.92-76.59,6.01-5.47,14.75,16.41ZM18.84,97.77l-4.64-5.47L22.12,15.71c2.55-7.29,7.55-11.85,15.02-13.68l6.01,21.88-6.01,57.44-18.3,16.41ZM107.32,89.56l9.56,10.94-12.02,10.94H33.86l-9.83-10.94,12.29-10.94h71ZM43.97,67.68L116.33,2.03c10.92,0,17.84,3.65,20.75,10.94L58.71,84.09h-16.38l1.64-16.41ZM122.07,103.24l4.92,5.47-7.92,76.59c-2.55,7.3-7.56,11.86-15.02,13.68l-6.01-21.88,6.01-57.44,18.02-16.41Z"
      />
    </symbol>
    <symbol id="char-l" viewBox="0 0 142 200">
      <path
        d="M33.04,119.65l-6.01,57.44-10.38,21.88c-7.1-1.82-11.2-6.38-12.29-13.68l7.92-76.59,6.01-5.47,14.75,16.41ZM18.84,97.77l-4.64-5.47L22.12,15.71c2.55-7.29,7.55-11.85,15.02-13.68l6.01,21.88-6.01,57.44-18.3,16.41ZM32.5,177.09h65.54l21.03,8.21c-2.55,7.3-7.56,11.86-15.02,13.68H22.12l10.38-21.88Z"
      />
    </symbol>
    <symbol id="char-m" viewBox="0 0 142 200">
      <path
        d="M33.04,119.65l-6.01,57.44-10.38,21.88c-7.1-1.82-11.2-6.38-12.29-13.68l7.92-76.59,6.01-5.47,14.75,16.41ZM42.6,29.38l-5.46,51.97-18.3,16.41-4.64-5.47,7.37-71.12,21.03,8.21ZM108.69,23.91H43.42l-21.03-8.21c2.55-7.29,7.55-11.85,15.02-13.68h81.65l-10.38,21.88ZM82.47,92.29l-12.29,10.94-9.56-10.94,6.55-62.91h21.85l-6.55,62.91ZM122.07,103.24l4.92,5.47-7.92,76.59c-2.55,7.3-7.56,11.86-15.02,13.68l-6.01-21.88,6.01-57.44,18.02-16.41ZM108.14,81.35l6.01-57.44,10.38-21.88c7.1,1.82,11.2,6.39,12.29,13.68l-7.92,76.59-6.28,5.47-14.47-16.41Z"
      />
    </symbol>
    <symbol id="char-n" viewBox="0 0 142 200">
      <path
        d="M33.04,119.65l-6.01,57.44-10.38,21.88c-7.1-1.82-11.2-6.38-12.29-13.68l8.19-76.59,6.01-5.47,14.47,16.41ZM18.84,100.5l-4.92-5.47,7.92-76.59c2.55-7.29,7.55-11.85,15.02-13.68l6.01,21.88-6.01,57.44-18.02,16.41ZM102.41,84.09h-19.12l-36.59-41.03,1.64-16.41h16.38l39.05,43.77-1.37,13.68ZM122.34,103.24l4.92,5.47-8.19,76.59c-2.55,7.3-7.56,11.86-15.02,13.68l-6.01-21.88,6.01-57.44,18.3-16.41ZM107.87,84.09l6.01-57.44,10.38-21.88c7.1,1.82,11.2,6.39,12.29,13.68l-7.92,76.59-6.01,5.47-14.75-16.41Z"
      />
    </symbol>
    <symbol id="char-o" viewBox="0 0 142 200">
      <path
        d="M33.04,119.65l-6.01,57.44-9.01,8.21-12.29-13.68,6.55-62.91,6.01-5.47,14.75,16.41ZM18.84,97.77l-4.64-5.47,6.55-62.91,15.02-13.68,7.37,8.21-6.01,57.44-18.3,16.41ZM102.41,188.03l-12.02,10.94H30.31l-9.83-10.94,12.02-10.94h60.08l9.83,10.94ZM108.69,23.91h-60.08l-9.83-10.94,12.02-10.94h60.08l9.83,10.94-12.02,10.94ZM122.07,103.24l4.92,5.47-6.55,62.91-15.02,13.68-7.37-8.21,6.01-57.44,18.02-16.41ZM108.14,81.35l6.01-57.44,9.01-8.21,12.29,13.68-6.55,62.91-6.28,5.47-14.47-16.41Z"
      />
    </symbol>
    <symbol id="char-p" viewBox="0 0 142 200">
      <path
        d="M33.04,119.65l-6.01,57.44-10.38,21.88c-7.1-1.82-11.2-6.38-12.29-13.68l7.92-76.59,6.01-5.47,14.75,16.41ZM42.6,29.38l-5.46,51.97-18.3,16.41-4.64-5.47,7.37-71.12,21.03,8.21ZM108.69,23.91H43.15l-21.03-8.21,1.37-13.68h87.39l9.83,10.94-12.02,10.94ZM107.32,89.56l9.56,10.94-12.02,10.94H33.86l-9.83-10.94,12.29-10.94h71ZM108.14,81.35l6.01-57.44,9.01-8.21,12.29,13.68-6.55,62.91-6.28,5.47-14.47-16.41Z"
      />
    </symbol>
    <symbol id="char-q" viewBox="0 0 142 200">
      <path
        d="M93.12,198.97H16.66c-7.1-1.82-11.2-6.38-12.29-13.68l22.67-8.21h46.42l19.66,21.88ZM4.92,179.82l7.65-71.12,6.01-5.47,14.47,16.41-5.46,51.97-22.67,8.21ZM42.6,29.38l-5.46,51.97-18.02,16.41-4.92-5.47,7.37-71.12,21.03,8.21ZM108.69,23.91H43.42l-21.03-8.21c2.55-7.29,7.65-11.85,15.29-13.68h81.65l-10.65,21.88ZM73.73,149.74h16.38l31.68,35.56-1.64,16.41h-16.38l-31.95-35.56,1.91-16.41ZM122.34,103.24l4.92,5.47-7.1,65.65-19.39-21.88,3.28-32.82,18.3-16.41ZM108.14,81.35l6.01-57.44,10.65-21.88c6.92,1.82,10.92,6.39,12.02,13.68l-7.92,76.59-6.01,5.47-14.75-16.41Z"
      />
    </symbol>
    <symbol id="char-r" viewBox="0 0 142 200">
      <path
        d="M33.04,119.65l-6.01,57.44-10.38,21.88c-7.1-1.82-11.2-6.38-12.29-13.68l7.92-76.59,6.01-5.47,14.75,16.41ZM42.6,29.38l-5.46,51.97-18.3,16.41-4.64-5.47,7.37-71.12,21.03,8.21ZM108.69,23.91H43.42l-21.03-8.21c2.55-7.29,7.55-11.85,15.02-13.68h81.65l-10.38,21.88ZM107.32,89.56l9.56,10.94-12.02,10.94H33.86l-9.83-10.94,12.29-10.94h71ZM38.78,116.91h16.38l63.63,71.12c-4.37,7.3-12.02,10.94-22.94,10.94l-58.71-65.65,1.64-16.41ZM108.14,81.35l6.01-57.44,10.38-21.88c7.1,1.82,11.2,6.39,12.29,13.68l-7.92,76.59-6.28,5.47-14.47-16.41Z"
      />
    </symbol>
    <symbol id="char-s" viewBox="0 0 142 200">
      <path
        d="M98.58,198.97H16.66c-7.1-1.82-11.2-6.38-12.29-13.68l22.67-8.21h65.54l6.01,21.88ZM42.6,29.38l-5.46,51.97-18.3,16.41-4.64-5.47,7.37-71.12,21.03,8.21ZM43.42,23.91l-21.03-8.21c2.55-7.29,7.55-11.85,15.02-13.68h87.11c7.1,1.82,11.2,6.39,12.29,13.68l-22.67,8.21H43.42ZM107.32,89.56l9.56,10.94-12.02,10.94H33.86l-9.83-10.94,12.29-10.94h71ZM122.07,103.24l4.92,5.47-7.92,76.59c-2.55,7.3-7.56,11.86-15.02,13.68l-6.01-21.88,6.01-57.44,18.02-16.41Z"
      />
    </symbol>
    <symbol id="char-t" viewBox="0 0 142 200">
      <path
        d="M43.42,23.91l-21.03-8.21c2.55-7.29,7.55-11.85,15.02-13.68h87.11c7.1,1.82,11.2,6.39,12.29,13.68l-22.67,8.21H43.42ZM70.18,103.24l9.83,10.94-7.37,71.12c-2.55,7.3-7.56,11.86-15.02,13.68l-6.01-21.88,6.55-62.91,12.02-10.94ZM61.17,86.82l6.01-57.44h21.85l-6.01,57.44-12.29,10.94-9.56-10.94Z"
      />
    </symbol>
    <symbol id="char-u" viewBox="0 0 142 200">
      <path
        d="M98.58,198.97H16.66c-7.1-1.82-11.2-6.38-12.29-13.68l22.67-8.21h65.54l6.01,21.88ZM4.92,179.82l7.37-71.12,6.01-5.47,14.75,16.41-5.46,51.97-22.67,8.21ZM18.57,100.5l-4.64-5.47,7.92-76.59c2.55-7.29,7.55-11.85,15.02-13.68l6.01,21.88-6.01,57.44-18.3,16.41ZM122.07,103.24l4.92,5.47-7.92,76.59c-2.55,7.3-7.56,11.86-15.02,13.68l-6.01-21.88,6.01-57.44,18.02-16.41ZM108.14,81.35l6.01-57.44,10.38-21.88c7.1,1.82,11.2,6.39,12.29,13.68l-7.92,76.59-6.28,5.47-14.47-16.41Z"
      />
    </symbol>
    <symbol id="char-v" viewBox="0 0 142 200">
      <path
        d="M60.9,166.15l-3.28,32.82L10.38,127.85l1.64-16.41,6.28-5.47,14.47,16.41,28.13,43.77ZM18.84,100.5l-4.92-5.47,7.92-76.59c2.55-7.29,7.55-11.85,15.02-13.68l6.01,21.88-6.01,57.44-18.02,16.41ZM103.77,122.38l18.3-16.41,4.64,5.47-1.64,16.41-61.99,71.12,3.28-32.82,37.41-43.77ZM107.87,84.09l6.01-57.44,10.38-21.88c7.1,1.82,11.2,6.39,12.29,13.68l-7.92,76.59-6.01,5.47-14.75-16.41Z"
      />
    </symbol>
    <symbol id="char-w" viewBox="0 0 142 200">
      <path
        d="M98.58,198.97H16.93c-7.1-1.82-11.2-6.38-12.29-13.68l22.67-8.21h65.27l6.01,21.88ZM4.92,179.82l7.37-71.12,6.01-5.47,14.75,16.41-5.46,51.97-22.67,8.21ZM18.84,97.77l-4.64-5.47L22.12,15.71c2.55-7.29,7.55-11.85,15.02-13.68l6.01,21.88-6.01,57.44-18.3,16.41ZM74,171.62h-21.85l6.55-62.91,12.02-10.94,9.83,10.94-6.55,62.91ZM122.07,103.24l4.92,5.47-7.92,76.59c-2.55,7.3-7.56,11.86-15.02,13.68l-6.01-21.88,6.01-57.44,18.02-16.41ZM108.14,81.35l6.01-57.44,10.38-21.88c7.1,1.82,11.2,6.39,12.29,13.68l-7.92,76.59-6.28,5.47-14.47-16.41Z"
      />
    </symbol>
    <symbol id="char-x" viewBox="0 0 142 200">
      <path
        d="M64.17,132.78l-39.32,66.19c-10.92,0-17.84-3.65-20.75-10.94l50.79-84.79h12.29l-3,29.54ZM68,97.77h-12.29L22.67,12.97c4.37-7.29,12.02-10.94,22.94-10.94l25.67,66.47-3.28,29.27ZM72.91,103.24h12.29l33.32,84.79c-4.37,7.3-12.02,10.94-22.94,10.94l-25.67-66.19,3-29.54ZM77.01,68.22L116.33,2.03c10.92,0,17.84,3.65,20.75,10.94l-51.07,84.8h-12.29l3.28-29.54Z"
      />
    </symbol>
    <symbol id="char-y" viewBox="0 0 142 200">
      <path
        d="M98.58,198.97H16.66c-7.1-1.82-11.2-6.38-12.29-13.68l22.67-8.21h65.54l6.01,21.88ZM43.42,21.18l-6.28,60.18-18.3,16.41-4.64-5.47L22.39,12.97l21.03,8.21ZM107.32,89.56l9.56,10.94-12.02,10.94H33.86l-9.83-10.94,12.29-10.94h71ZM122.07,103.24l4.92,5.47-7.92,76.59c-2.55,7.3-7.56,11.86-15.02,13.68l-6.01-21.88,6.01-57.44,18.02-16.41ZM108.14,81.35l6.01-57.44,10.38-21.88c7.1,1.82,11.2,6.39,12.29,13.68l-7.92,76.59-6.28,5.47-14.47-16.41Z"
      />
    </symbol>
    <symbol id="char-z" viewBox="0 0 142 200">
      <path
        d="M71.27,119.65l-46.42,79.32c-10.92,0-17.84-3.65-20.75-10.94l52.43-84.79h16.38l-1.64,16.41ZM97.76,23.91h-54.34l-21.03-8.21c2.55-7.29,7.55-11.85,15.02-13.68h73.46l-13.11,21.88ZM106.77,198.97H30.31l13.11-21.88h57.35l6.01,21.88ZM72.64,81.35L116.33,2.03c10.92,0,17.84,3.65,20.75,10.94l-49.97,84.8h-16.38l1.91-16.41Z"
      />
    </symbol>
  </defs>
</svg>
