<?xml version="1.0" encoding="UTF-8"?>
<svg id="Layer_1" data-name="Layer 1" xmlns="http://www.w3.org/2000/svg" viewBox="0 0 142 200">
  <defs>
    <style>
      .cls-1 {
        fill: #231f20;
        stroke-width: 0px;
      }
    </style>
  </defs>
  <path class="cls-1" d="M43.42,21.18l-6.28,60.18-18.3,16.41-4.64-5.47L22.39,12.97l21.03,8.21ZM107.32,89.56l9.56,10.94-12.02,10.94H33.86l-9.83-10.94,12.29-10.94h71ZM122.07,103.24l4.92,5.47-7.92,76.59c-2.55,7.3-7.56,11.86-15.02,13.68l-6.01-21.88,6.01-57.44,18.02-16.41ZM108.14,81.35l6.01-57.44,10.38-21.88c7.1,1.82,11.2,6.39,12.29,13.68l-7.92,76.59-6.28,5.47-14.47-16.41Z"/>
</svg>