<?xml version="1.0" encoding="UTF-8"?>
<svg id="Layer_1" data-name="Layer 1" xmlns="http://www.w3.org/2000/svg" viewBox="0 0 16 16">
  <defs>
    <style>
      .cls-1 {
        opacity: .15;
      }

      .cls-1, .cls-2 {
        fill: #52a2d9;
        stroke-width: 0px;
      }
    </style>
  </defs>
  <path class="cls-1" d="M10.28,16H3.61c-.58-.15-.91-.52-1-1.11l1.84-.67h5.33l.49,1.78ZM2.66,14.44l.6-5.78.49-.44,1.2,1.33-.44,4.22-1.85.67ZM5.72,2.22l-.44,4.22-1.49,1.33-.38-.44.6-5.78,1.71.67ZM11.1,1.78h-5.31l-1.71-.67c.21-.59.61-.96,1.22-1.11h6.64l-.84,1.78ZM10.99,7.11l.78.89-.98.89h-5.78l-.8-.89,1-.89h5.78ZM12.19,8.22l.4.44-.64,6.22c-.21.59-.61.96-1.22,1.11l-.49-1.78.49-4.67,1.47-1.33ZM11.06,6.44l.49-4.67.84-1.78c.58.15.91.52,1,1.11l-.65,6.22-.51.44-1.18-1.33Z"/>
  <path class="cls-2" d="M5.78,1.78l-1.71-.67c.21-.59.61-.96,1.22-1.11h7.09c.58.15.91.52,1,1.11l-1.85.67h-5.76ZM7.96,8.22l.8.89-.6,5.78c-.21.59-.61.96-1.22,1.11l-.49-1.78.53-5.11.98-.89ZM7.22,6.89l.49-4.67h1.78l-.49,4.67-1,.89-.78-.89Z"/>
</svg>