<?xml version="1.0" encoding="UTF-8"?>
<svg id="Layer_1" data-name="Layer 1" xmlns="http://www.w3.org/2000/svg" viewBox="0 0 142 200">
  <defs>
    <style>
      .cls-1 {
        fill: #231f20;
        stroke-width: 0px;
      }
    </style>
  </defs>
  <path class="cls-1" d="M33.04,119.65l-6.01,57.44-10.38,21.88c-7.1-1.82-11.2-6.38-12.29-13.68l7.92-76.59,6.01-5.47,14.75,16.41ZM18.84,97.77l-4.64-5.47L22.12,15.71c2.55-7.29,7.55-11.85,15.02-13.68l6.01,21.88-6.01,57.44-18.3,16.41ZM107.32,89.56l9.56,10.94-12.02,10.94H33.86l-9.83-10.94,12.29-10.94h71ZM43.97,67.68L116.33,2.03c10.92,0,17.84,3.65,20.75,10.94L58.71,84.09h-16.38l1.64-16.41ZM122.07,103.24l4.92,5.47-7.92,76.59c-2.55,7.3-7.56,11.86-15.02,13.68l-6.01-21.88,6.01-57.44,18.02-16.41Z"/>
</svg>