<?xml version="1.0" encoding="UTF-8"?>
<svg id="b" data-name="Layer 2" xmlns="http://www.w3.org/2000/svg" width="748.6" height="355.7" viewBox="0 0 748.6 355.7">
  <defs>
    <style>
      .f {
        opacity: .2;
      }

      .g {
        opacity: .8;
      }

      .h {
        fill: #e1e7ef;
      }

      .h, .i, .j, .k {
        stroke-width: 0px;
      }

      .i {
        fill: #009eff;
      }

      .j {
        fill: #fff;
      }

      .k {
        fill: #efefef;
      }
    </style>
  </defs>
  <g id="c" data-name="Layer 2">
    <g>
      <g id="d" data-name="a">
        <rect class="k" width="748.6" height="355.7"/>
      </g>
      <g id="e" data-name="b">
        <path class="h" d="m120.3,276H38.5c-7.1-1.8-11.2-6.4-12.3-13.6l22.6-8.2h65.5l6,21.8h0Zm-93.5-19.1l7.4-70.9,6-5.5,14.7,16.4-5.5,51.8-22.6,8.2Zm37.6-150l-5.5,51.8-18.3,16.4-4.6-5.5,7.4-70.9,21,8.2h0Zm66-5.5h-65.2l-21-8.2c2.5-7.3,7.5-11.8,15-13.6h81.5l-10.4,21.8h0Zm-1.4,65.5l9.5,10.9-12,10.9H55.6l-9.8-10.9,12.3-10.9h70.9Zm14.7,13.6l4.9,5.5-7.9,76.4c-2.5,7.3-7.5,11.8-15,13.6l-6-21.8,6-57.3,18-16.4h0Zm-13.9-21.7l6-57.3,10.4-21.8c7.1,1.8,11.2,6.4,12.3,13.6l-7.9,76.4-6.3,5.5-14.5-16.4Z"/>
        <path class="h" d="m262,276h-81.8c-7.1-1.8-11.2-6.4-12.3-13.6l22.6-8.2h65.5l6,21.8h0Zm-93.5-19.1l7.4-70.9,6-5.5,14.7,16.4-5.5,51.8-22.6,8.2h0Zm37.5-150l-5.5,51.8-18.3,16.4-4.6-5.5,7.4-70.9,21,8.2h0Zm66-5.5h-65.2l-21-8.2c2.5-7.3,7.5-11.8,15-13.6h81.5l-10.4,21.8h.1Zm-1.4,65.5l9.5,10.9-12,10.9h-70.9l-9.8-10.9,12.3-10.9h70.9Zm14.7,13.6l4.9,5.5-7.9,76.4c-2.5,7.3-7.5,11.8-15,13.6l-6-21.8,6-57.3,18-16.4h0Zm-13.9-21.7l6-57.3,10.4-21.8c7.1,1.8,11.2,6.4,12.3,13.6l-7.9,76.4-6.3,5.5-14.5-16.4Z"/>
        <path class="h" d="m404.1,276h-81.8c-7.1-1.8-11.2-6.4-12.3-13.6l22.6-8.2h65.5l6,21.8h0Zm-93.5-19.1l7.4-70.9,6-5.5,14.7,16.4-5.5,51.8-22.6,8.2h0Zm37.6-150l-5.5,51.8-18.3,16.4-4.6-5.5,7.4-70.9,21,8.2h0Zm66-5.5h-65.2l-21-8.2c2.5-7.3,7.5-11.8,15-13.6h81.5l-10.5,21.8h.2Zm-1.4,65.5l9.5,10.9-12,10.9h-70.9l-9.8-10.9,12.3-10.9h70.9Zm14.7,13.6l4.9,5.5-7.9,76.4c-2.5,7.3-7.5,11.8-15,13.6l-6-21.8,6-57.3,18-16.4h0Zm-14-21.7l6-57.3,10.5-21.8c7.1,1.8,11.2,6.4,12.3,13.6l-7.9,76.4-6.3,5.5-14.6-16.4Z"/>
        <path class="h" d="m545.6,276h-81.8c-7.1-1.8-11.2-6.4-12.3-13.6l22.6-8.2h65.5l6,21.8h0Zm-93.5-19.1l7.4-70.9,6-5.5,14.7,16.4-5.5,51.8-22.6,8.2h0Zm37.6-150l-5.5,51.8-18.3,16.4-4.6-5.5,7.4-70.9,21,8.2h0Zm66-5.5h-65.2l-21-8.2c2.5-7.3,7.5-11.8,15-13.6h81.5l-10.4,21.8h.1Zm-1.5,65.5l9.5,10.9-12,10.9h-70.9l-9.8-10.9,12.3-10.9h70.9Zm14.8,13.6l4.9,5.5-7.9,76.4c-2.5,7.3-7.5,11.8-15,13.6l-6-21.8,6-57.3,18-16.4h0Zm-14-21.7l6-57.3,10.4-21.8c7.1,1.8,11.2,6.4,12.3,13.6l-7.9,76.4-6.3,5.5-14.5-16.4Z"/>
        <path class="h" d="m687.7,276h-81.8c-7.1-1.8-11.2-6.4-12.3-13.6l22.6-8.2h65.5l6,21.8h0Zm-93.5-19.1l7.4-70.9,6-5.5,14.7,16.4-5.5,51.8-22.6,8.2h0Zm37.6-150l-5.5,51.8-18.3,16.4-4.6-5.5,7.4-70.9,21,8.2h0Zm66-5.5h-65.2l-21-8.2c2.5-7.3,7.5-11.8,15-13.6h81.4l-10.4,21.8h.2Zm-1.5,65.5l9.5,10.9-12,10.9h-70.9l-9.8-10.9,12.3-10.9h70.9Zm14.7,13.6l4.9,5.5-7.9,76.4c-2.5,7.3-7.5,11.8-15,13.6l-6-21.8,6-57.3,18-16.4h0Zm-13.9-21.7l6-57.3,10.4-21.8c7.1,1.8,11.2,6.4,12.3,13.6l-7.9,76.4-6.3,5.5-14.5-16.4Z"/>
      </g>
      <g>
        <g>
          <path class="i" d="m65.4,101.5l-21-8.2c2.5-7.3,7.5-11.8,15-13.6h87c7.1,1.8,11.2,6.4,12.3,13.6l-22.6,8.2h-70.7Zm26.7,79.1l9.8,10.9-7.4,70.9c-2.5,7.3-7.5,11.8-15,13.6l-6-21.8,6.5-62.7,12-10.9h0Zm-9-16.4l6-57.3h21.8l-6,57.3-12.3,10.9-9.5-10.9Z"/>
          <path class="i" d="m270.5,276.1h-90c-7.1-1.8-11.2-6.4-12.3-13.6l22.6-8.2h73.6l6,21.8h.1Zm-101.7-19.1l7.4-70.9,6-5.5,14.7,16.4-5.5,51.8-22.6,8.2h0Zm37.5-150l-5.5,51.8-18.3,16.4-4.6-5.5,7.4-70.9,21,8.2h0Zm74.2-5.5h-73.4l-21-8.2c2.5-7.3,7.5-11.8,15-13.6h89.7l-10.4,21.8s.1,0,.1,0Zm-9.5,65.5l9.5,10.9-12,10.9h-70.9l-9.8-10.9,12.3-10.9h70.9Z"/>
          <path class="i" d="m338.7,197l-6,57.3-10.4,21.8c-7.1-1.8-11.2-6.4-12.3-13.6l7.9-76.4,6-5.5,14.8,16.4h0Zm9.5-90l-5.5,51.8-18.3,16.4-4.6-5.5,7.4-70.9,21,8.2h0Zm66-5.5h-65.2l-21-8.2c2.5-7.3,7.5-11.8,15-13.6h81.5l-10.5,21.8h.2Zm-26.2,68.2l-12.3,10.9-9.5-10.9,6.5-62.7h21.8l-6.5,62.7Zm39.5,10.8l4.9,5.5-7.9,76.4c-2.5,7.3-7.5,11.8-15,13.6l-6-21.8,6-57.3,18-16.4h0Zm-14-21.7l6-57.3,10.5-21.8c7.1,1.8,11.2,6.4,12.3,13.6l-7.9,76.4-6.3,5.5-14.6-16.4Z"/>
          <path class="i" d="m480.5,197l-6,57.3-10.5,21.7c-7.1-1.8-11.2-6.4-12.3-13.6l7.9-76.4,6-5.5,14.9,16.5h0Zm9.5-90l-5.5,51.8-18.3,16.4-4.6-5.5,7.4-70.9,21,8.2h0Zm66-5.5h-65.5l-21-8.2,1.4-13.6h87.3l9.8,10.9-12,10.9h0Zm-1.5,65.5l9.5,10.9-12,10.9h-70.9l-9.8-10.9,12.3-10.9h70.9Zm.8-8.2l6-57.3,9-8.2,12.3,13.6-6.5,62.7-6.3,5.5-14.5-16.3h0Z"/>
          <path class="i" d="m622.3,197l-6,57.3-9,8.2-12.3-13.6,6.5-62.7,6-5.5,14.8,16.3h0Zm-14.2-21.8l-4.6-5.5,6.5-62.7,15-13.6,7.4,8.2-6,57.3-18.3,16.3h0Zm83.4,90l-12,10.9h-60l-9.8-10.9,12-10.9h60l9.8,10.9Zm6.4-163.6h-60l-9.8-10.9,12-10.9h60l9.8,10.9-12,10.9Zm13.4,79.1l4.9,5.5-6.5,62.7-15,13.6-7.4-8.2,6-57.3,18-16.3h0Zm-13.9-21.8l6-57.3,9-8.2,12.3,13.6-6.5,62.7-6.3,5.5-14.5-16.3h0Z"/>
        </g>
        <g class="f">
          <g class="g">
            <path class="j" d="m65.4,101.5l-21-8.2c2.5-7.3,7.5-11.8,15-13.6h87c7.1,1.8,11.2,6.4,12.3,13.6l-22.6,8.2h-70.7Zm26.7,79.1l9.8,10.9-7.4,70.9c-2.5,7.3-7.5,11.8-15,13.6l-6-21.8,6.5-62.7,12-10.9h0Zm-9-16.4l6-57.3h21.8l-6,57.3-12.3,10.9-9.5-10.9Z"/>
            <path class="j" d="m270.5,276.1h-90c-7.1-1.8-11.2-6.4-12.3-13.6l22.6-8.2h73.6l6,21.8h.1Zm-101.7-19.1l7.4-70.9,6-5.5,14.7,16.4-5.5,51.8-22.6,8.2h0Zm37.5-150l-5.5,51.8-18.3,16.4-4.6-5.5,7.4-70.9,21,8.2h0Zm74.2-5.5h-73.4l-21-8.2c2.5-7.3,7.5-11.8,15-13.6h89.7l-10.4,21.8s.1,0,.1,0Zm-9.5,65.5l9.5,10.9-12,10.9h-70.9l-9.8-10.9,12.3-10.9h70.9Z"/>
            <path class="j" d="m338.7,197l-6,57.3-10.4,21.8c-7.1-1.8-11.2-6.4-12.3-13.6l7.9-76.4,6-5.5,14.8,16.4h0Zm9.5-90l-5.5,51.8-18.3,16.4-4.6-5.5,7.4-70.9,21,8.2h0Zm66-5.5h-65.2l-21-8.2c2.5-7.3,7.5-11.8,15-13.6h81.5l-10.5,21.8h.2Zm-26.2,68.2l-12.3,10.9-9.5-10.9,6.5-62.7h21.8l-6.5,62.7Zm39.5,10.8l4.9,5.5-7.9,76.4c-2.5,7.3-7.5,11.8-15,13.6l-6-21.8,6-57.3,18-16.4h0Zm-14-21.7l6-57.3,10.5-21.8c7.1,1.8,11.2,6.4,12.3,13.6l-7.9,76.4-6.3,5.5-14.6-16.4Z"/>
            <path class="j" d="m480.5,197l-6,57.3-10.5,21.7c-7.1-1.8-11.2-6.4-12.3-13.6l7.9-76.4,6-5.5,14.9,16.5h0Zm9.5-90l-5.5,51.8-18.3,16.4-4.6-5.5,7.4-70.9,21,8.2h0Zm66-5.5h-65.5l-21-8.2,1.4-13.6h87.3l9.8,10.9-12,10.9h0Zm-1.5,65.5l9.5,10.9-12,10.9h-70.9l-9.8-10.9,12.3-10.9h70.9Zm.8-8.2l6-57.3,9-8.2,12.3,13.6-6.5,62.7-6.3,5.5-14.5-16.3h0Z"/>
            <path class="j" d="m622.3,197l-6,57.3-9,8.2-12.3-13.6,6.5-62.7,6-5.5,14.8,16.3h0Zm-14.2-21.8l-4.6-5.5,6.5-62.7,15-13.6,7.4,8.2-6,57.3-18.3,16.3h0Zm83.4,90l-12,10.9h-60l-9.8-10.9,12-10.9h60l9.8,10.9Zm6.4-163.6h-60l-9.8-10.9,12-10.9h60l9.8,10.9-12,10.9Zm13.4,79.1l4.9,5.5-6.5,62.7-15,13.6-7.4-8.2,6-57.3,18-16.3h0Zm-13.9-21.8l6-57.3,9-8.2,12.3,13.6-6.5,62.7-6.3,5.5-14.5-16.3h0Z"/>
          </g>
        </g>
      </g>
    </g>
  </g>
</svg>