<?xml version="1.0" encoding="utf-8"?>
<!-- Generator: Adobe Illustrator 28.2.0, SVG Export Plug-In . SVG Version: 6.00 Build 0)  -->
<svg version="1.1" id="b" xmlns="http://www.w3.org/2000/svg" xmlns:xlink="http://www.w3.org/1999/xlink" x="0px" y="0px"
	 viewBox="0 0 748.6 355.7" style="enable-background:new 0 0 748.6 355.7;" xml:space="preserve">
<style type="text/css">
	.st0{opacity:0.1;}
	.st1{fill:#FFFFFF;}
</style>
<g id="shadow" class="st0">
	<path class="st1" d="M120.3,276H38.5c-7.1-1.8-11.2-6.4-12.3-13.6l22.6-8.2h65.5L120.3,276L120.3,276z M26.8,256.9l7.4-70.9l6-5.5
		l14.7,16.4l-5.5,51.8C49.4,248.7,26.8,256.9,26.8,256.9z M64.4,106.9l-5.5,51.8l-18.3,16.4l-4.6-5.5l7.4-70.9L64.4,106.9
		C64.4,106.9,64.4,106.9,64.4,106.9z M130.4,101.4H65.2l-21-8.2c2.5-7.3,7.5-11.8,15-13.6h81.5L130.4,101.4L130.4,101.4L130.4,101.4
		z M129,166.9l9.5,10.9l-12,10.9H55.6l-9.8-10.9l12.3-10.9H129z M143.7,180.5l4.9,5.5l-7.9,76.4c-2.5,7.3-7.5,11.8-15,13.6l-6-21.8
		l6-57.3L143.7,180.5L143.7,180.5z M129.8,158.8l6-57.3l10.4-21.8c7.1,1.8,11.2,6.4,12.3,13.6l-7.9,76.4l-6.3,5.5L129.8,158.8z"/>
	<path class="st1" d="M262,276h-81.8c-7.1-1.8-11.2-6.4-12.3-13.6l22.6-8.2H256L262,276L262,276z M168.5,256.9l7.4-70.9l6-5.5
		l14.7,16.4l-5.5,51.8L168.5,256.9L168.5,256.9L168.5,256.9z M206,106.9l-5.5,51.8l-18.3,16.4l-4.6-5.5l7.4-70.9L206,106.9
		L206,106.9L206,106.9z M272,101.4h-65.2l-21-8.2c2.5-7.3,7.5-11.8,15-13.6h81.5l-10.4,21.8H272z M270.6,166.9l9.5,10.9l-12,10.9
		h-70.9l-9.8-10.9l12.3-10.9H270.6z M285.3,180.5l4.9,5.5l-7.9,76.4c-2.5,7.3-7.5,11.8-15,13.6l-6-21.8l6-57.3L285.3,180.5
		L285.3,180.5z M271.4,158.8l6-57.3l10.4-21.8c7.1,1.8,11.2,6.4,12.3,13.6l-7.9,76.4l-6.3,5.5L271.4,158.8z"/>
	<path class="st1" d="M404.1,276h-81.8c-7.1-1.8-11.2-6.4-12.3-13.6l22.6-8.2h65.5L404.1,276L404.1,276z M310.6,256.9L318,186l6-5.5
		l14.7,16.4l-5.5,51.8L310.6,256.9L310.6,256.9z M348.2,106.9l-5.5,51.8l-18.3,16.4l-4.6-5.5l7.4-70.9L348.2,106.9
		C348.2,106.9,348.2,106.9,348.2,106.9z M414.2,101.4H349l-21-8.2c2.5-7.3,7.5-11.8,15-13.6h81.5L414,101.4H414.2z M412.8,166.9
		l9.5,10.9l-12,10.9h-70.9l-9.8-10.9l12.3-10.9H412.8z M427.5,180.5l4.9,5.5l-7.9,76.4c-2.5,7.3-7.5,11.8-15,13.6l-6-21.8l6-57.3
		L427.5,180.5L427.5,180.5z M413.5,158.8l6-57.3L430,79.7c7.1,1.8,11.2,6.4,12.3,13.6l-7.9,76.4l-6.3,5.5L413.5,158.8z"/>
	<path class="st1" d="M545.6,276h-81.8c-7.1-1.8-11.2-6.4-12.3-13.6l22.6-8.2h65.5L545.6,276L545.6,276z M452.1,256.9l7.4-70.9
		l6-5.5l14.7,16.4l-5.5,51.8L452.1,256.9L452.1,256.9z M489.7,106.9l-5.5,51.8l-18.3,16.4l-4.6-5.5l7.4-70.9L489.7,106.9
		C489.7,106.9,489.7,106.9,489.7,106.9z M555.7,101.4h-65.2l-21-8.2c2.5-7.3,7.5-11.8,15-13.6H566l-10.4,21.8H555.7L555.7,101.4z
		 M554.2,166.9l9.5,10.9l-12,10.9h-70.9l-9.8-10.9l12.3-10.9H554.2z M569,180.5l4.9,5.5l-7.9,76.4c-2.5,7.3-7.5,11.8-15,13.6
		l-6-21.8l6-57.3L569,180.5L569,180.5z M555,158.8l6-57.3l10.4-21.8c7.1,1.8,11.2,6.4,12.3,13.6l-7.9,76.4l-6.3,5.5L555,158.8z"/>
	<path class="st1" d="M687.7,276h-81.8c-7.1-1.8-11.2-6.4-12.3-13.6l22.6-8.2h65.5L687.7,276L687.7,276z M594.2,256.9l7.4-70.9
		l6-5.5l14.7,16.4l-5.5,51.8L594.2,256.9L594.2,256.9L594.2,256.9z M631.8,106.9l-5.5,51.8L608,175.1l-4.6-5.5l7.4-70.9L631.8,106.9
		L631.8,106.9L631.8,106.9z M697.8,101.4h-65.2l-21-8.2c2.5-7.3,7.5-11.8,15-13.6H708l-10.4,21.8H697.8z M696.3,166.9l9.5,10.9
		l-12,10.9h-70.9l-9.8-10.9l12.3-10.9H696.3z M711,180.5l4.9,5.5l-7.9,76.4c-2.5,7.3-7.5,11.8-15,13.6l-6-21.8l6-57.3L711,180.5
		L711,180.5z M697.1,158.8l6-57.3l10.4-21.8c7.1,1.8,11.2,6.4,12.3,13.6l-7.9,76.4l-6.3,5.5L697.1,158.8z"/>
</g>
<g id="letters">
	<path class="st1" d="M65.4,101.5l-21-8.2c2.5-7.3,7.5-11.8,15-13.6h87c7.1,1.8,11.2,6.4,12.3,13.6l-22.6,8.2
		C136.1,101.5,65.4,101.5,65.4,101.5z M92.1,180.6l9.8,10.9l-7.4,70.9c-2.5,7.3-7.5,11.8-15,13.6l-6-21.8l6.5-62.7L92.1,180.6
		L92.1,180.6L92.1,180.6z M83.1,164.2l6-57.3h21.8l-6,57.3l-12.3,10.9L83.1,164.2z"/>
	<path class="st1" d="M270.5,276.1h-90c-7.1-1.8-11.2-6.4-12.3-13.6l22.6-8.2h73.6l6,21.8H270.5z M168.8,257l7.4-70.9l6-5.5
		l14.7,16.4l-5.5,51.8L168.8,257L168.8,257L168.8,257z M206.3,107l-5.5,51.8l-18.3,16.4l-4.6-5.5l7.4-70.9L206.3,107L206.3,107
		L206.3,107z M280.5,101.5h-73.4l-21-8.2c2.5-7.3,7.5-11.8,15-13.6h89.7l-10.4,21.8H280.5z M271,167l9.5,10.9l-12,10.9h-70.9
		l-9.8-10.9l12.3-10.9H271z"/>
	<path class="st1" d="M338.7,197l-6,57.3l-10.4,21.8c-7.1-1.8-11.2-6.4-12.3-13.6l7.9-76.4l6-5.5L338.7,197L338.7,197z M348.2,107
		l-5.5,51.8l-18.3,16.4l-4.6-5.5l7.4-70.9L348.2,107C348.2,107,348.2,107,348.2,107z M414.2,101.5H349l-21-8.2
		c2.5-7.3,7.5-11.8,15-13.6h81.5L414,101.5H414.2z M388,169.7l-12.3,10.9l-9.5-10.9l6.5-62.7h21.8L388,169.7z M427.5,180.5l4.9,5.5
		l-7.9,76.4c-2.5,7.3-7.5,11.8-15,13.6l-6-21.8l6-57.3L427.5,180.5L427.5,180.5z M413.5,158.8l6-57.3L430,79.7
		c7.1,1.8,11.2,6.4,12.3,13.6l-7.9,76.4l-6.3,5.5L413.5,158.8z"/>
	<path class="st1" d="M480.5,197l-6,57.3L464,276c-7.1-1.8-11.2-6.4-12.3-13.6l7.9-76.4l6-5.5L480.5,197L480.5,197z M490,107
		l-5.5,51.8l-18.3,16.4l-4.6-5.5l7.4-70.9L490,107C490,107,490,107,490,107z M556,101.5h-65.5l-21-8.2l1.4-13.6h87.3l9.8,10.9
		L556,101.5C556,101.5,556,101.5,556,101.5z M554.5,167l9.5,10.9l-12,10.9h-70.9l-9.8-10.9l12.3-10.9H554.5z M555.3,158.8l6-57.3
		l9-8.2l12.3,13.6l-6.5,62.7l-6.3,5.5L555.3,158.8L555.3,158.8z"/>
	<path class="st1" d="M622.3,197l-6,57.3l-9,8.2L595,248.9l6.5-62.7l6-5.5L622.3,197L622.3,197z M608.1,175.2l-4.6-5.5L610,107
		l15-13.6l7.4,8.2l-6,57.3L608.1,175.2L608.1,175.2L608.1,175.2z M691.5,265.2l-12,10.9h-60l-9.8-10.9l12-10.9h60L691.5,265.2z
		 M697.9,101.6h-60l-9.8-10.9l12-10.9h60l9.8,10.9L697.9,101.6z M711.3,180.7l4.9,5.5l-6.5,62.7l-15,13.6l-7.4-8.2l6-57.3
		L711.3,180.7L711.3,180.7L711.3,180.7z M697.4,158.9l6-57.3l9-8.2l12.3,13.6l-6.5,62.7l-6.3,5.5L697.4,158.9L697.4,158.9z"/>
</g>
</svg>
