<?xml version="1.0" encoding="utf-8"?>
<!-- Generator: Adobe Illustrator 27.8.1, SVG Export Plug-In . SVG Version: 6.00 Build 0)  -->
<svg version="1.1" id="Layer_1" xmlns="http://www.w3.org/2000/svg" xmlns:xlink="http://www.w3.org/1999/xlink" x="0px" y="0px"
	 viewBox="0 0 750 350" style="enable-background:new 0 0 750 350;" xml:space="preserve">
<style type="text/css">
	.st0{fill:#28292B;}
	.st1{fill:#1E1F21;}
	.st2{fill:#00D6FF;}
	.st3{opacity:0.8;}
	.st4{fill:#FFFFFF;}
</style>
<g>
	<g id="a">
		<rect x="-2" y="-1.9" class="st0" width="752" height="355.7"/>
	</g>
	<g id="b">
		<path class="st1" d="M118.3,274.1H36.5c-7.1-1.8-11.2-6.4-12.3-13.6l22.6-8.2h65.5L118.3,274.1L118.3,274.1z M24.8,255l7.4-70.9
			l6-5.5L52.9,195l-5.5,51.8L24.8,255z M62.4,105l-5.5,51.8l-18.3,16.4l-4.6-5.5l7.4-70.9L62.4,105L62.4,105z M128.4,99.5H63.2
			l-21-8.2c2.5-7.3,7.5-11.8,15-13.6h81.5l-10.4,21.8H128.4z M127,165l9.5,10.9l-12,10.9H53.6l-9.8-10.9L56.1,165H127z M141.7,178.6
			l4.9,5.5l-7.9,76.4c-2.5,7.3-7.5,11.8-15,13.6l-6-21.8l6-57.3L141.7,178.6L141.7,178.6z M127.8,156.9l6-57.3l10.4-21.8
			c7.1,1.8,11.2,6.4,12.3,13.6l-7.9,76.4l-6.3,5.5L127.8,156.9z"/>
		<path class="st1" d="M260,274.1h-81.8c-7.1-1.8-11.2-6.4-12.3-13.6l22.6-8.2H254L260,274.1L260,274.1z M166.5,255l7.4-70.9l6-5.5
			l14.7,16.4l-5.5,51.8L166.5,255L166.5,255z M204,105l-5.5,51.8l-18.3,16.4l-4.6-5.5l7.4-70.9L204,105L204,105z M270,99.5h-65.2
			l-21-8.2c2.5-7.3,7.5-11.8,15-13.6h81.5l-10.4,21.8H270z M268.6,165l9.5,10.9l-12,10.9h-70.9l-9.8-10.9l12.3-10.9H268.6z
			 M283.3,178.6l4.9,5.5l-7.9,76.4c-2.5,7.3-7.5,11.8-15,13.6l-6-21.8l6-57.3L283.3,178.6L283.3,178.6z M269.4,156.9l6-57.3
			l10.4-21.8c7.1,1.8,11.2,6.4,12.3,13.6l-7.9,76.4l-6.3,5.5L269.4,156.9z"/>
		<path class="st1" d="M402.1,274.1h-81.8c-7.1-1.8-11.2-6.4-12.3-13.6l22.6-8.2h65.5L402.1,274.1L402.1,274.1z M308.6,255l7.4-70.9
			l6-5.5l14.7,16.4l-5.5,51.8L308.6,255L308.6,255z M346.2,105l-5.5,51.8l-18.3,16.4l-4.6-5.5l7.4-70.9L346.2,105L346.2,105z
			 M412.2,99.5H347l-21-8.2c2.5-7.3,7.5-11.8,15-13.6h81.5L412,99.5H412.2z M410.8,165l9.5,10.9l-12,10.9h-70.9l-9.8-10.9l12.3-10.9
			H410.8z M425.5,178.6l4.9,5.5l-7.9,76.4c-2.5,7.3-7.5,11.8-15,13.6l-6-21.8l6-57.3L425.5,178.6L425.5,178.6z M411.5,156.9l6-57.3
			L428,77.8c7.1,1.8,11.2,6.4,12.3,13.6l-7.9,76.4l-6.3,5.5L411.5,156.9z"/>
		<path class="st1" d="M543.6,274.1h-81.8c-7.1-1.8-11.2-6.4-12.3-13.6l22.6-8.2h65.5L543.6,274.1L543.6,274.1z M450.1,255l7.4-70.9
			l6-5.5l14.7,16.4l-5.5,51.8L450.1,255L450.1,255z M487.7,105l-5.5,51.8l-18.3,16.4l-4.6-5.5l7.4-70.9L487.7,105L487.7,105z
			 M553.7,99.5h-65.2l-21-8.2c2.5-7.3,7.5-11.8,15-13.6H564l-10.4,21.8H553.7z M552.2,165l9.5,10.9l-12,10.9h-70.9l-9.8-10.9
			l12.3-10.9H552.2z M567,178.6l4.9,5.5l-7.9,76.4c-2.5,7.3-7.5,11.8-15,13.6l-6-21.8l6-57.3L567,178.6L567,178.6z M553,156.9
			l6-57.3l10.4-21.8c7.1,1.8,11.2,6.4,12.3,13.6l-7.9,76.4l-6.3,5.5L553,156.9z"/>
		<path class="st1" d="M685.7,274.1h-81.8c-7.1-1.8-11.2-6.4-12.3-13.6l22.6-8.2h65.5L685.7,274.1L685.7,274.1z M592.2,255l7.4-70.9
			l6-5.5l14.7,16.4l-5.5,51.8L592.2,255L592.2,255z M629.8,105l-5.5,51.8L606,173.2l-4.6-5.5l7.4-70.9L629.8,105L629.8,105z
			 M695.8,99.5h-65.2l-21-8.2c2.5-7.3,7.5-11.8,15-13.6H706l-10.4,21.8H695.8z M694.3,165l9.5,10.9l-12,10.9h-70.9l-9.8-10.9
			l12.3-10.9H694.3z M709,178.6l4.9,5.5l-7.9,76.4c-2.5,7.3-7.5,11.8-15,13.6l-6-21.8l6-57.3L709,178.6L709,178.6z M695.1,156.9
			l6-57.3l10.4-21.8c7.1,1.8,11.2,6.4,12.3,13.6l-7.9,76.4l-6.3,5.5L695.1,156.9z"/>
	</g>
	<g>
		<g>
			<path class="st2" d="M63.4,99.6l-21-8.2c2.5-7.3,7.5-11.8,15-13.6h87c7.1,1.8,11.2,6.4,12.3,13.6l-22.6,8.2H63.5H63.4z
				 M90.1,178.7l9.8,10.9l-7.4,70.9c-2.5,7.3-7.5,11.8-15,13.6l-6-21.8l6.5-62.7l12-10.9H90.1z M81.1,162.3l6-57.3h21.8l-6,57.3
				l-12.3,10.9L81.1,162.3z"/>
			<path class="st2" d="M268.5,274.2h-90c-7.1-1.8-11.2-6.4-12.3-13.6l22.6-8.2h73.6l6,21.8L268.5,274.2z M166.8,255.1l7.4-70.9
				l6-5.5l14.7,16.4l-5.5,51.8L166.8,255.1L166.8,255.1z M204.3,105.1l-5.5,51.8l-18.3,16.4l-4.6-5.5l7.4-70.9L204.3,105.1
				L204.3,105.1z M278.5,99.6h-73.4l-21-8.2c2.5-7.3,7.5-11.8,15-13.6h89.7l-10.4,21.8H278.5z M269,165.1l9.5,10.9l-12,10.9h-70.9
				l-9.8-10.9l12.3-10.9H269z"/>
			<path class="st2" d="M336.7,195.1l-6,57.3l-10.4,21.8c-7.1-1.8-11.2-6.4-12.3-13.6l7.9-76.4l6-5.5L336.7,195.1L336.7,195.1z
				 M346.2,105.1l-5.5,51.8l-18.3,16.4l-4.6-5.5l7.4-70.9L346.2,105.1L346.2,105.1z M412.2,99.6H347l-21-8.2
				c2.5-7.3,7.5-11.8,15-13.6h81.5L412,99.6H412.2z M386,167.8l-12.3,10.9l-9.5-10.9l6.5-62.7h21.8L386,167.8z M425.5,178.6l4.9,5.5
				l-7.9,76.4c-2.5,7.3-7.5,11.8-15,13.6l-6-21.8l6-57.3L425.5,178.6L425.5,178.6z M411.5,156.9l6-57.3L428,77.8
				c7.1,1.8,11.2,6.4,12.3,13.6l-7.9,76.4l-6.3,5.5L411.5,156.9z"/>
			<path class="st2" d="M478.5,195.1l-6,57.3L462,274.1c-7.1-1.8-11.2-6.4-12.3-13.6l7.9-76.4l6-5.5L478.5,195.1L478.5,195.1z
				 M488,105.1l-5.5,51.8l-18.3,16.4l-4.6-5.5l7.4-70.9L488,105.1L488,105.1z M554,99.6h-65.5l-21-8.2l1.4-13.6h87.3l9.8,10.9
				L554,99.6L554,99.6z M552.5,165.1L562,176l-12,10.9h-70.9l-9.8-10.9l12.3-10.9H552.5z M553.3,156.9l6-57.3l9-8.2l12.3,13.6
				l-6.5,62.7l-6.3,5.5L553.3,156.9L553.3,156.9z"/>
			<path class="st2" d="M620.3,195.1l-6,57.3l-9,8.2L593,247l6.5-62.7l6-5.5L620.3,195.1L620.3,195.1z M606.1,173.3l-4.6-5.5
				l6.5-62.7l15-13.6l7.4,8.2l-6,57.3L606.1,173.3L606.1,173.3z M689.5,263.3l-12,10.9h-60l-9.8-10.9l12-10.9h60L689.5,263.3z
				 M695.9,99.7h-60l-9.8-10.9l12-10.9h60l9.8,10.9L695.9,99.7z M709.3,178.8l4.9,5.5l-6.5,62.7l-15,13.6l-7.4-8.2l6-57.3
				L709.3,178.8L709.3,178.8z M695.4,157l6-57.3l9-8.2l12.3,13.6l-6.5,62.7l-6.3,5.5L695.4,157L695.4,157z"/>
		</g>
		<g>
			<g class="st3">
				<path class="st4" d="M63.4,99.6l-21-8.2c2.5-7.3,7.5-11.8,15-13.6h87c7.1,1.8,11.2,6.4,12.3,13.6l-22.6,8.2H63.5H63.4z
					 M90.1,178.7l9.8,10.9l-7.4,70.9c-2.5,7.3-7.5,11.8-15,13.6l-6-21.8l6.5-62.7l12-10.9H90.1z M81.1,162.3l6-57.3h21.8l-6,57.3
					l-12.3,10.9L81.1,162.3z"/>
				<path class="st4" d="M268.5,274.2h-90c-7.1-1.8-11.2-6.4-12.3-13.6l22.6-8.2h73.6l6,21.8L268.5,274.2z M166.8,255.1l7.4-70.9
					l6-5.5l14.7,16.4l-5.5,51.8L166.8,255.1L166.8,255.1z M204.3,105.1l-5.5,51.8l-18.3,16.4l-4.6-5.5l7.4-70.9L204.3,105.1
					L204.3,105.1z M278.5,99.6h-73.4l-21-8.2c2.5-7.3,7.5-11.8,15-13.6h89.7l-10.4,21.8H278.5z M269,165.1l9.5,10.9l-12,10.9h-70.9
					l-9.8-10.9l12.3-10.9H269z"/>
				<path class="st4" d="M336.7,195.1l-6,57.3l-10.4,21.8c-7.1-1.8-11.2-6.4-12.3-13.6l7.9-76.4l6-5.5L336.7,195.1L336.7,195.1z
					 M346.2,105.1l-5.5,51.8l-18.3,16.4l-4.6-5.5l7.4-70.9L346.2,105.1L346.2,105.1z M412.2,99.6H347l-21-8.2
					c2.5-7.3,7.5-11.8,15-13.6h81.5L412,99.6H412.2z M386,167.8l-12.3,10.9l-9.5-10.9l6.5-62.7h21.8L386,167.8z M425.5,178.6
					l4.9,5.5l-7.9,76.4c-2.5,7.3-7.5,11.8-15,13.6l-6-21.8l6-57.3L425.5,178.6L425.5,178.6z M411.5,156.9l6-57.3L428,77.8
					c7.1,1.8,11.2,6.4,12.3,13.6l-7.9,76.4l-6.3,5.5L411.5,156.9z"/>
				<path class="st4" d="M478.5,195.1l-6,57.3L462,274.1c-7.1-1.8-11.2-6.4-12.3-13.6l7.9-76.4l6-5.5L478.5,195.1L478.5,195.1z
					 M488,105.1l-5.5,51.8l-18.3,16.4l-4.6-5.5l7.4-70.9L488,105.1L488,105.1z M554,99.6h-65.5l-21-8.2l1.4-13.6h87.3l9.8,10.9
					L554,99.6L554,99.6z M552.5,165.1L562,176l-12,10.9h-70.9l-9.8-10.9l12.3-10.9H552.5z M553.3,156.9l6-57.3l9-8.2l12.3,13.6
					l-6.5,62.7l-6.3,5.5L553.3,156.9L553.3,156.9z"/>
				<path class="st4" d="M620.3,195.1l-6,57.3l-9,8.2L593,247l6.5-62.7l6-5.5L620.3,195.1L620.3,195.1z M606.1,173.3l-4.6-5.5
					l6.5-62.7l15-13.6l7.4,8.2l-6,57.3L606.1,173.3L606.1,173.3z M689.5,263.3l-12,10.9h-60l-9.8-10.9l12-10.9h60L689.5,263.3z
					 M695.9,99.7h-60l-9.8-10.9l12-10.9h60l9.8,10.9L695.9,99.7z M709.3,178.8l4.9,5.5l-6.5,62.7l-15,13.6l-7.4-8.2l6-57.3
					L709.3,178.8L709.3,178.8z M695.4,157l6-57.3l9-8.2l12.3,13.6l-6.5,62.7l-6.3,5.5L695.4,157L695.4,157z"/>
			</g>
		</g>
	</g>
</g>
</svg>
