<?xml version="1.0" encoding="UTF-8"?>
<svg id="Layer_1" data-name="Layer 1" xmlns="http://www.w3.org/2000/svg" viewBox="0 0 142 200">
  <defs>
    <style>
      .cls-1 {
        fill: #231f20;
        stroke-width: 0px;
      }
    </style>
  </defs>
  <path class="cls-1" d="M33.04,119.65l-6.01,57.44-10.38,21.88c-7.1-1.82-11.2-6.38-12.29-13.68l8.19-76.59,6.01-5.47,14.47,16.41ZM18.84,100.5l-4.92-5.47,7.92-76.59c2.55-7.29,7.55-11.85,15.02-13.68l6.01,21.88-6.01,57.44-18.02,16.41ZM102.41,84.09h-19.12l-36.59-41.03,1.64-16.41h16.38l39.05,43.77-1.37,13.68ZM122.34,103.24l4.92,5.47-8.19,76.59c-2.55,7.3-7.56,11.86-15.02,13.68l-6.01-21.88,6.01-57.44,18.3-16.41ZM107.87,84.09l6.01-57.44,10.38-21.88c7.1,1.82,11.2,6.39,12.29,13.68l-7.92,76.59-6.01,5.47-14.75-16.41Z"/>
</svg>