<?xml version="1.0" encoding="UTF-8"?>
<svg id="Layer_1" data-name="Layer 1" xmlns="http://www.w3.org/2000/svg" viewBox="0 0 142 200">
  <defs>
    <style>
      .cls-1 {
        fill: #231f20;
        stroke-width: 0px;
      }
    </style>
  </defs>
  <path class="cls-1" d="M33.04,119.65l-6.01,57.44-9.01,8.21-12.29-13.68,6.55-62.91,6.01-5.47,14.75,16.41ZM18.84,97.77l-4.64-5.47,6.55-62.91,15.02-13.68,7.37,8.21-6.01,57.44-18.3,16.41ZM102.41,188.03l-12.02,10.94H30.31l-9.83-10.94,12.02-10.94h60.08l9.83,10.94ZM108.69,23.91h-60.08l-9.83-10.94,12.02-10.94h60.08l9.83,10.94-12.02,10.94ZM122.07,103.24l4.92,5.47-6.55,62.91-15.02,13.68-7.37-8.21,6.01-57.44,18.02-16.41ZM108.14,81.35l6.01-57.44,9.01-8.21,12.29,13.68-6.55,62.91-6.28,5.47-14.47-16.41Z"/>
</svg>