<?xml version="1.0" encoding="UTF-8"?>
<svg id="Layer_1" data-name="Layer 1" xmlns="http://www.w3.org/2000/svg" viewBox="0 0 142 200">
  <defs>
    <style>
      .cls-1 {
        fill: #231f20;
        stroke-width: 0px;
      }
    </style>
  </defs>
  <path class="cls-1" d="M93.12,198.97H16.66c-7.1-1.82-11.2-6.38-12.29-13.68l22.67-8.21h46.42l19.66,21.88ZM4.92,179.82l7.65-71.12,6.01-5.47,14.47,16.41-5.46,51.97-22.67,8.21ZM42.6,29.38l-5.46,51.97-18.02,16.41-4.92-5.47,7.37-71.12,21.03,8.21ZM108.69,23.91H43.42l-21.03-8.21c2.55-7.29,7.65-11.85,15.29-13.68h81.65l-10.65,21.88ZM73.73,149.74h16.38l31.68,35.56-1.64,16.41h-16.38l-31.95-35.56,1.91-16.41ZM122.34,103.24l4.92,5.47-7.1,65.65-19.39-21.88,3.28-32.82,18.3-16.41ZM108.14,81.35l6.01-57.44,10.65-21.88c6.92,1.82,10.92,6.39,12.02,13.68l-7.92,76.59-6.01,5.47-14.75-16.41Z"/>
</svg>