<?xml version="1.0" encoding="UTF-8"?>
<svg id="Layer_1" data-name="Layer 1" xmlns="http://www.w3.org/2000/svg" viewBox="0 0 142 200">
  <defs>
    <style>
      .cls-1 {
        fill: #231f20;
        stroke-width: 0px;
      }
    </style>
  </defs>
  <path class="cls-1" d="M33.04,119.65l-6.01,57.44-10.38,21.88c-7.1-1.82-11.2-6.38-12.29-13.68l7.92-76.59,6.01-5.47,14.75,16.41ZM42.6,29.38l-5.46,51.97-18.3,16.41-4.64-5.47,7.37-71.12,21.03,8.21ZM108.69,23.91H43.42l-21.03-8.21c2.55-7.29,7.55-11.85,15.02-13.68h81.65l-10.38,21.88ZM107.32,89.56l9.56,10.94-12.02,10.94H33.86l-9.83-10.94,12.29-10.94h71ZM38.78,116.91h16.38l63.63,71.12c-4.37,7.3-12.02,10.94-22.94,10.94l-58.71-65.65,1.64-16.41ZM108.14,81.35l6.01-57.44,10.38-21.88c7.1,1.82,11.2,6.39,12.29,13.68l-7.92,76.59-6.28,5.47-14.47-16.41Z"/>
</svg>