<?xml version="1.0" encoding="UTF-8"?>
<svg id="Layer_1" data-name="Layer 1" xmlns="http://www.w3.org/2000/svg" viewBox="0 0 142 200">
  <defs>
    <style>
      .cls-1 {
        fill: #231f20;
        stroke-width: 0px;
      }
    </style>
  </defs>
  <path class="cls-1" d="M60.9,166.15l-3.28,32.82L10.38,127.85l1.64-16.41,6.28-5.47,14.47,16.41,28.13,43.77ZM18.84,100.5l-4.92-5.47,7.92-76.59c2.55-7.29,7.55-11.85,15.02-13.68l6.01,21.88-6.01,57.44-18.02,16.41ZM103.77,122.38l18.3-16.41,4.64,5.47-1.64,16.41-61.99,71.12,3.28-32.82,37.41-43.77ZM107.87,84.09l6.01-57.44,10.38-21.88c7.1,1.82,11.2,6.39,12.29,13.68l-7.92,76.59-6.01,5.47-14.75-16.41Z"/>
</svg>