<?xml version="1.0" encoding="UTF-8"?>
<svg id="Layer_1" data-name="Layer 1" xmlns="http://www.w3.org/2000/svg" viewBox="0 0 142 200">
  <defs>
    <style>
      .cls-1 {
        fill: #231f20;
        stroke-width: 0px;
      }
    </style>
  </defs>
  <path class="cls-1" d="M64.17,132.78l-39.32,66.19c-10.92,0-17.84-3.65-20.75-10.94l50.79-84.79h12.29l-3,29.54ZM68,97.77h-12.29L22.67,12.97c4.37-7.29,12.02-10.94,22.94-10.94l25.67,66.47-3.28,29.27ZM72.91,103.24h12.29l33.32,84.79c-4.37,7.3-12.02,10.94-22.94,10.94l-25.67-66.19,3-29.54ZM77.01,68.22L116.33,2.03c10.92,0,17.84,3.65,20.75,10.94l-51.07,84.8h-12.29l3.28-29.54Z"/>
</svg>